# xmcd
#
# Track frame offsets: 
#        150
#        15239
#        31082
#        46120
#        63243
#        85332
#        98611
#        112977
#        128150
#
# Disc length: 1911 seconds
#
# Revision: 0
# Processed by: cddbd v1.5.2PL0 Copyright (c) Steve Scherf et al.
# Submitted via: ExactAudioCopyFreeDBPlugin 1.0
#
DISCID=5b077509
DTITLE=Taryn Cross - Taryn Cross
DYEAR=1900
DGENRE=Country
TTITLE0=I Can Break My Own Heart
TTITLE1=The Good Life
TTITLE2=Sunday Best
TTITLE3=This Heart of Mine
TTITLE4=My Pearls
TTITLE5=Two Step Program
TTITLE6=Bad Hair Day
TTITLE7=I'm Gonna Buy Me A Car
TTITLE8=Here Without You
EXTD=
EXTT0=
EXTT1=
EXTT2=
EXTT3=
EXTT4=
EXTT5=
EXTT6=
EXTT7=
EXTT8=
PLAYORDER=
